<svg width="500" height="400" xmlns="http://www.w3.org/2000/svg">
  <!-- Background Elements -->
  <defs>
    <linearGradient id="bgGradient" x1="0%" y1="0%" x2="100%" y2="100%">
      <stop offset="0%" stop-color="#f8f9fa" stop-opacity="0.2"/>
      <stop offset="100%" stop-color="#e9ecef" stop-opacity="0.5"/>
    </linearGradient>
    <filter id="shadow" x="-20%" y="-20%" width="140%" height="140%">
      <feDropShadow dx="2" dy="2" stdDeviation="3" flood-color="#000" flood-opacity="0.15"/>
    </filter>
  </defs>
  
  <!-- Background Shape -->
  <circle cx="250" cy="200" r="180" fill="url(#bgGradient)" opacity="0.7"/>

  <!-- Building Silhouette -->
  <g fill="#3F7D58" opacity="0.9" filter="url(#shadow)">
    <rect x="170" y="150" width="160" height="180" rx="5" ry="5"/>
    <rect x="150" y="130" width="200" height="20" rx="2" ry="2"/>
    <rect x="190" y="80" width="120" height="50" rx="2" ry="2"/>
    <rect x="220" y="40" width="60" height="40" rx="2" ry="2"/>
  </g>
  
  <!-- Windows -->
  <g fill="#E9F2FF">
    <rect x="190" y="170" width="30" height="30" rx="2" ry="2"/>
    <rect x="235" y="170" width="30" height="30" rx="2" ry="2"/>
    <rect x="280" y="170" width="30" height="30" rx="2" ry="2"/>
    <rect x="190" y="220" width="30" height="30" rx="2" ry="2"/>
    <rect x="235" y="220" width="30" height="30" rx="2" ry="2"/>
    <rect x="280" y="220" width="30" height="30" rx="2" ry="2"/>
    <rect x="190" y="270" width="30" height="30" rx="2" ry="2"/>
    <rect x="235" y="270" width="30" height="30" rx="2" ry="2"/>
    <rect x="280" y="270" width="30" height="30" rx="2" ry="2"/>
  </g>
  
  <!-- Electricity Symbol -->
  <g transform="translate(100, 170) scale(0.7)">
    <circle cx="50" cy="50" r="45" fill="#EF9651" opacity="0.9"/>
    <path d="M50,20 L30,60 L50,60 L45,85 L70,45 L50,45 Z" fill="white"/>
  </g>
  
  <!-- Water Drop Symbol -->
  <g transform="translate(330, 170) scale(0.7)">
    <circle cx="50" cy="50" r="45" fill="#4CA1AF" opacity="0.9"/>
    <path d="M50,20 C50,20 25,50 25,70 C25,85 35,95 50,95 C65,95 75,85 75,70 C75,50 50,20 50,20 Z" fill="white"/>
    <path d="M45,75 C45,75 40,65 50,60 C60,65 55,75 55,75 C55,80 50,85 45,75 Z" fill="#4CA1AF" opacity="0.7"/>
  </g>
  
  <!-- Connecting Lines -->
  <g stroke="#3F7D58" stroke-width="3" stroke-dasharray="5,5" opacity="0.7">
    <path d="M150,190 L120,190" fill="none"/>
    <path d="M350,190 L380,190" fill="none"/>
  </g>
</svg> 